<svg id="Layer_1" data-name="Layer 1" xmlns="http://www.w3.org/2000/svg" viewBox="0 0 128.87 125.28"><defs><style>.cls-1{fill:none;}.cls-1,.cls-2,.cls-4,.cls-5{stroke:#000;stroke-miterlimit:10;}.cls-3{fill:#fff;}.cls-4{fill:#ed1c24;}.cls-4,.cls-5{stroke-width:0.2px;}.cls-5{fill:#00abe9;}</style></defs><title>Paatshala</title><path class="cls-1" d="M92.83,55.38" transform="translate(-34.96 -26.62)"/><path class="cls-2" d="M37.34,81.26,92.87,57.09l1.47-.43a15.68,15.68,0,0,1,8.8,0l1.44.42,55.07,24.17-22.39,9.1a8.39,8.39,0,0,1-7-.32L101.9,75.47h0a3.92,3.92,0,0,0-3.4,3.91v.51l24.29,12.64a1.46,1.46,0,0,1,0,2.59l-19.52,9.62h0a13.68,13.68,0,0,1-9.58.27l-.79-.27Z" transform="translate(-34.96 -26.62)"/><path class="cls-2" d="M68,101.47l23,10.72h0a40.13,40.13,0,0,0,14.29,0L99,112.8c.34-.06,7-.81,7.26-1l18.57-9.24v15.74l-14.9,10.27a14.67,14.67,0,0,1-1.78,1.1,21.4,21.4,0,0,1-10,2.4h0a26.17,26.17,0,0,1-8.82-1.51A27.82,27.82,0,0,1,85,128.69L68,119Z" transform="translate(-34.96 -26.62)"/><polygon class="cls-3" points="1.38 54.46 18.49 47.08 19.62 42.95 0 50.87 1.38 54.46"/><polygon class="cls-3" points="127.49 55.15 110.38 47.77 109.25 43.65 128.87 51.56 127.49 55.15"/><path class="cls-3" d="M51.76,70.71" transform="translate(-34.96 -26.62)"/><path class="cls-4" d="M37.7,76.2l14.06-5.49a52.61,52.61,0,0,1,47.37-32,52.37,52.37,0,0,1,47.36,32L160,76.64a63.49,63.49,0,0,0-16.47-31c-17.44-17.83-39.76-18.85-44.74-19A62.49,62.49,0,0,0,37.7,76.2Z" transform="translate(-34.96 -26.62)"/><path class="cls-5" d="M36.26,81.67l11.85,4.85c-.19,3.14-1.07,23.19,14.63,39.12C78,141.13,97.31,141,100.55,140.9s24.63-1.28,38.93-19.66C151.11,106.3,150.32,89.81,150,85.76c3.61-1.28,7.16-3,10.78-4.3.47,3.56,3.51,30.1-15.86,50.85-17,18.25-39.16,19.32-43.4,19.45-3.48.15-30.82.9-50.22-21.32C33.53,110.07,35.81,85.58,36.26,81.67Z" transform="translate(-34.96 -26.62)"/><rect class="cls-3" x="91.55" y="94.63" width="6.15" height="30.4"/></svg>